<?xml version='1.0' encoding='utf-8'?>
<svg xmlns="http://www.w3.org/2000/svg" version="1.1" id="Layer_1" x="0px" y="0px" viewBox="0 0 3790.225 4400" enable-background="new 0 0 3790.225 4400"> <g> <path d="M3789.236,792.765c3.323-28.24-1.647-24.786-16.005-42.943c-15.904-20.11-10.418-47.302-30.501-64.607 c-16.687-14.378-41.805-23.237-63.796-23.351c14.37,0.074-4.588-64.027-6.204-69.705c-34.868-35.151-67.407-96.41-131.918-100.027 c0.401-7.935-2.095-15.336-5.394-22.335c-2.994-6.352-2.321-15.392-5.437-22.334c-12.66-28.21-67.8-62.095-80.791-65.944 c-9.105-13.057-13.653-21.22-29.813-26.427c-14.8-4.768-33.168-14.704-48.7-14.858c-32.158-76.246-85.387-61.495-101.251-81.278 c-22.408-27.936-58.411-25.394-88.641-35.869c-8.549-2.962-13.512-12.6-20.553-19.187c-27.834-26.04-51.241-21.535-60.015-27.046 c-4.863-3.055-8.129-10.747-12.174-14.934c-7.581-7.846-15.125-5.94-22.85-9.899c-9.493-4.865-12.778-12.891-25.508-10.943 c-5.57,6.469-5.573,14.692-58.732,3.977c0,0-36.625-41.536-36.64-41.554c-6.456-7.377-62.278-12.358-62.278-12.358 c-17.208-25.506-52.558-38.212-91.095-23.082c-3.936-0.213-38.199-2.332-38.2-4.163c-5.446-24.76-38.554-31.844-63.532-35.192 c-7.694-1.031-28.975,4.871-34.826,0.149c-28.108-22.687-78.37-15.33-107.789,0.701c-1.885,3.104-3.604,6.167-5.955,8.873 c-8.926-6.111-7.841-21.375-20.538-25.218l-0.624-1.917c-25.547-9.853-55.729-15.426-80.519-0.446c0,0-51.135-27.529-94.707,5.132 c-4.378,3.281-7.216,7.501-12.351,8.211c-13.901,1.906-38.776-19.104-57.982-13.534c-3.361,0.974-9.188,9.197-12.585,9.197 c-23.355,4.164-33.438,13.732-33.438,13.732c-2.854,0.937-8.471,2.809-11.324,3.745c-32.167-3.378-46.185-1.057-83.284,18.681 c-54.58,35.345-30.601,97.807-27.207,120.082c1.84,12.079-8.498,20.344-12.469,30.788c-6.547,17.215,3.618,76.973,5.563,77.267 c8.133,1.228,13.083,1.421,16.149,0.154l292.759,1048.87c-6.373,5.849-10.343,20.252-13.442,53.057 c-0.553,5.854,2.83,17.51-3.21,25.636c-10.629,14.302-13.024,5.517-24.387,33.928c-22.144,8.257-20.246,11.525-30.229,10.12 l-0.267,4.37l-0.223,0.089c-16.207,0.398-21.938,21.035-35.756,27.598l-0.981,2.586c-6.51,6.242-1.605,17.477-2.542,25.725 c3.308,4.46,26.619,43.669,27.241,64.514c-7.564,24.854-15.742,23.108-28.4,38.566c-0.026,0.073-1.691,1.543-10.477,27.108 c7.49,1.783,14.98,3.478,22.515,5.217c1.917,20.644-25.436,27.045-28.167,27.237c-1.281,1.824-3.7,5.178-4.915,6.87l-4.993,1.873 c-0.765,15.291-2.607,14.964-14.178,18.502l0.669,3.478l-3.79,0.802c0.134,2.051,0.446,6.152,0.58,8.159 c-1.427,1.962-4.28,5.84-5.707,7.802c-10.63,7.923-13.398,20.772-25.547,29.203c-1.441,2.51-4.077,6.839-4.547,7.668 c-6.019,1.561-12.528,1.65-18.057,4.637c-11.56,13.469-6.291,32.932-18.279,37.183c-0.3,9.004-0.183,20.152-0.089,29.559 c-3.79,3.567-7.58,7.089-11.146,10.879c-10.184,37.604-20.494,29.01-30.05,38.566c-5.579,2.792-25.286,12.126-25.813,19.007 c-0.469,6.114,11.956,14.208,17.298,14.208c8.515-0.267,15.427-6.152,23.541-8.249c10.254-1.203,21.668,1.115,30.272-6.019 c0.217-12.756-2.763-39.991,34.642-64.959c19.082-18.725,25.146-48.507,50.648-61.348c0,0-0.875,1.153,32.145-23.229 c9.987-0.891,19.439-4.235,28.668-7.891c5.84,5.306,18.457,7.401,16.674,17.388c-1.244,38.026,9.709,53.457-2.496,98.219 c-2.542,10.656,0.044,21.267,2.05,31.788c-6.58,35.642-13.835,36.25-20.553,52.698c2.719,9.363,12.618,14.891,14.133,24.745 c2.141,8.604,2.764,18.191,9.051,25.101c1.927,2.119,16.899,5.532,19.586,4.095c11.077-5.926-4.909-41.738-7.103-50.374 c-4.077-14.694,10.082-14.558,13.242-47.615c29.027-20.603,31.618-49.92,20.107-64.246c12.783-49.489,10.78-118.745,20.419-132.505 c3.968,5.885,7.624,11.904,11.548,17.833c7.222-7.847,12.974-16.853,18.19-26.126c15.159-2.854,26.528-14.891,34.509-27.33 c4.146-17.076-1.427-35.088,2.675-52.03c1.427-1.203,4.324-3.567,5.796-4.771c2.006-8.115,5.573-19.439-3.879-24.432 c3.554-5.971,8.851-12.21,10.22-19.054c41.82-51.902,118.079-114.857,125.44-135.5l977.71-456.021 c7.237,0.326,14.575-0.21,20.543-4.911c79.797-45.93,79.573-11.411,103.792-73.564c34.532-12.512,65.861-51.393,66.832-85.691 C3789.458,806.453,3789.102,799.632,3789.236,792.765z M2376.601,1519.7c-1.764,0-2.845-1.054-3.251-2.35c-0.083,0-0.168,0-0.246,0 l-0.178-3.21c0.236,0,0.5,0,0.785-0.002c0.549-0.903,1.51-1.552,2.89-1.552c1.362,0,2.314,0.63,2.867,1.511 c0.381-0.002,0.733-0.003,1.038-0.003l0.134,3.166c-0.229,0.005-0.488,0.011-0.767,0.016 C2379.483,1518.606,2378.395,1519.7,2376.601,1519.7z M2376.715,1478.784c1.528,9.31,5.074,12.743-15.427,40.527 c-6.019-6.465-11.547-13.42-15.694-21.222c0-2.363-0.044-7.134-0.044-9.541c16.006-6.108,19.126-26.75,35.445-33.126l-0.09,8.07 C2383.046,1469.555,2381.664,1474.638,2376.715,1478.784z M3566.983,817.465c9.095,18.414,19.751,37.228,16.63,58.673l-3.3,4.458 c2.434,0.475,4.872,0.961,7.308,1.464l-278.511,46.503l69.529-50.13l177.856-70.197 C3560.049,811.244,3563.551,814.3,3566.983,817.465z M2670.171,1373.027l68.424-67.75l-105.287,107.782l-4.162,3L2670.171,1373.027 z M2623.456,1415.457l74.879-155.686l-66.077,142.428L2623.456,1415.457z M3193.196,951.626l-521.994,434.114l-27.356,19.724 l189.824-194.323l467.09-462.491l-102.381,198.645l-6.951,5.03L3193.196,951.626z M2927.174,1115.418l390.682-399.941 l-13.794,26.765L2927.174,1115.418z M2832.098,1209.558l-108.571,107.502l618.826-649.114l-21.017,40.779L2832.098,1209.558z M2634.759,1414.764l11.587-8.354l-16.371,13.615l-0.703,0.356L2634.759,1414.764z M2672.57,1387.503l171.918-123.951 l-202.125,149.073L2672.57,1387.503z M2697.422,1366.834l502.308-417.748l91.953-15.354l-280.94,207.201L2697.422,1366.834z M3296.533,932.923l3.538-0.591l-121.987,87.95L3296.533,932.923z M3296.675,930.051l-1.032,0.761l-86.166,14.388l136.28-53.787 L3296.675,930.051z M3352.976,888.563l17.24-6.804l-66.067,47.633l-3.854,0.643L3352.976,888.563z M3554.696,806.552 l-168.713,66.587l153.24-110.484C3551.939,787.578,3552.186,794.987,3554.696,806.552z M3538.2,760.644l-160.641,115.82 l-18.479,7.293l172.365-135.693C3533.989,752.672,3536.249,756.875,3538.2,760.644z M3525.475,737.436 c1.746,3.052,3.363,5.919,4.884,8.65l-178.498,140.52l-144.785,57.143l305.474-221.056 C3515.862,728.242,3520.127,733.221,3525.475,737.436z M3448.879,623.836l-0.312,2.497c7.056,3.529,12.756,6.615,20.42,11.904 c11.003,15.405,33.803,59.251,36.024,63.711c1.165,6.758,3.31,13.063,6.424,18.802l-309.05,223.644l103.506-200.826l129.596-128.32 C3439.328,617.685,3443.743,620.516,3448.879,623.836z M3433.554,614.025l-124.361,123.136l13.982-27.13l100.043-102.414 C3426.048,609.324,3429.457,611.437,3433.554,614.025z M3421.251,606.441l-94.596,96.838l21.167-41.071l59.671-62.591 C3410.572,600.613,3413.781,602.013,3421.251,606.441z M3405.108,598.892l-53.665,56.29l33.152-64.323 C3396.546,596.38,3401.415,597.807,3405.108,598.892z M3346.157,517.101c5.564,10.083,31.391,60.545,37.083,71.515l-37.265,72.304 l-677.472,710.623l-30.312,30.014l647.894-913.461C3301.543,498.096,3321.115,507.937,3346.157,517.101z M3266.434,473.538 c5.203,4.449,11.063,8.915,17.771,13.354l-611.499,862.149L3266.434,473.538z M3264.731,472.076l-584.434,861.796l576.862-868.947 C3259.5,467.298,3262.012,469.683,3264.731,472.076z M3223.995,404.882c4.353,13.73,9.557,35.363,31.566,58.422l-615.148,926.61 l127.297-274.388l348.955-725.538C3136.679,401.507,3151.676,412.338,3223.995,404.882z M3114.722,388.88l-279.607,581.356 l271.666-585.573C3109.607,386.05,3112.221,387.465,3114.722,388.88z M3096.484,380.227c3.006,1.115,5.731,2.283,8.287,3.477 L2765.73,1114.5l-119.288,248.022l435.587-977.653C3086.986,383.55,3091.835,382,3096.484,380.227z M2926.526,307.327 l-469.873,946.494l448.669-956.622C2911.519,300.642,2918.536,304.037,2926.526,307.327z M2903.368,296.111l-339.353,723.544 l335.05-726.108C2900.458,294.403,2901.879,295.258,2903.368,296.111z M2744.937,237.914c24.997,8.275,67.497,20.951,85.468,1.917 c6.152-0.579,12.349-1.025,18.547-0.803c9.35,7.173,12.479,30.637,48.196,53.349L2418.55,1329.58l323.33-1092.645 C2742.899,237.261,2743.914,237.57,2744.937,237.914z M2739.756,236.256l-289.312,977.647l273.189-982.312 C2728.948,233.076,2734.322,234.57,2739.756,236.256z M2550.104,200.641c19.938,3.144,55.429,13.083,95.455-14.713 c1.65,0.134,4.949,0.312,6.554,0.402c21.336,30.009,44.662,37.707,69.376,44.66L2415.92,1329.718 c-0.009,0.001-0.017,0.003-0.025,0.004l133.083-1129.198C2549.357,200.565,2549.72,200.599,2550.104,200.641z M2546.76,200.295 l-117.761,999.202l102.387-1000.441C2536.156,199.355,2541.262,199.743,2546.76,200.295z M2529.161,198.921l-114.314,1116.958 l-19.063-821.759l1.097,3.193l-1.238-10.211l111.018-289.519C2513.412,198.147,2520.783,198.426,2529.161,198.921z M2412.691,1319.092l-56.621-940.586l37.324,108.655L2412.691,1319.092z M2443.948,163.19 c23.532,26.445,39.054,32.124,60.408,34.181l-109.286,285.001l-34.598-285.436C2387.37,196.044,2415.395,198.154,2443.948,163.19z M2358.237,197.019l33.889,279.591l-36.557-106.422l-10.362-172.128C2349.519,197.489,2353.863,197.197,2358.237,197.019z M2336.277,199.705c2.229-0.547,4.469-0.98,6.717-1.331l9.868,163.933l-53.597-156.024 C2310.982,206.092,2323.268,203.808,2336.277,199.705z M2242.16,185.883c17.057,13.997,35.096,20.246,54.753,20.408l56.45,164.333 l2.395,39.776l-145.063-193.769C2219.852,210.368,2229.796,200.877,2242.16,185.883z M2117.283,283.036 c3.215-2.993,3.044-9.378,3.431-20.646c3.433-0.072,6.212-0.487,8.51-1.154l247.971,952.989L2117.283,283.036z M2131.337,260.512 c14.395-6.01,4.562-24.466,20.004-27.235c0.591-0.106,1.16-0.202,1.739-0.302l247.274,1061.413L2131.337,260.512z M2155.283,232.597c22.369-3.727,36.801-3.941,53.552-14.728l146.879,196.196l0.251-0.189l55.209,917.128L2155.283,232.597z M2482.492,1573.684c-4.584,0-4.577-7.113,0-7.113C2487.077,1566.571,2487.069,1573.684,2482.492,1573.684z M2498.594,1531.745 c-20.682,31.049-11.029,14.949-35.296,34.959c-2.185,0.089-6.554,0.312-8.739,0.401c-3.79-3.834-7.58-7.579-11.369-11.324 c36.294-49.807,7.217-85.267-18.859-70.621c-24.919,16.613-24.867,21.302-24.387,48.463c-2.497-2.006-7.446-6.019-9.943-7.981 c-3.892-58.398,0.232,2.054,22.47-160.682c4.28-0.223,8.604-0.401,12.93-0.446c14.267,6.242,29.202,10.7,44.763,12.26 c17.165,1.962,29.515,15.872,45.967,19.885c8.56,2.898,18.77,3.21,25.413,10.12c31.048,28.291,11.013,20.945,55.284,30.897 C2555.937,1482.095,2533.718,1524.434,2498.594,1531.745z M2617.469,1422.074l-4.667,4.62c-0.364,0.03-0.651,0.015-1.039,0.06 c-20.748-34.555-41.948-37.932-64.291-33.661l-4.503,0.758c-29.875-27.619-20.429-26.209-64.291-26.394 c-6.476-12.454-16.809-34.189-39.635-35.578c-6.86-0.651-12.643-1.821-17.565-2.193l507.107-1021.502 c15.14,6.071,33.636,11.757,56.392,16.667c0,15.361-4.912,30.444,6.732,39.769c21.496,25.99,56.532,28.534,87.573,20.929 L2617.469,1422.074z M3619.37,950.104c-8.873,9.586-21.445,15.292-28.177,26.884c0.855,0.065,1.728,0.133,2.599,0.2 l-971.927,453.326l16.828-12.411l981.71-497.697c-1.661,4.907-3.511,8.751-3.687,10.125 C3616.119,935.194,3622.269,946.971,3619.37,950.104z M3621.332,917.432l-971.811,492.683l362.371-267.261l293.14-211.35 l288.5-48.171c4.705,1.06,9.392,2.244,14.027,3.672C3625.224,892.463,3624.442,906.622,3621.332,917.432z"/> <path d="M2279.755,1678.919c0.035-0.051,0.089-0.126,0.124-0.174C2279.383,1678.891,2279.422,1678.943,2279.755,1678.919z"/> </g> <g> <path d="M1459.772,358.529c-4.22-34.655-22.924-34.48-27.062-57.432c-6.041-33.516-52.673-69.437-72.787-80.861 c-41.981-23.843-46.703-50.074-180.005-71.02c-126.572-19.887-227.685-26.519-241.736-28.564 c-31.035-4.516-87.5-26.02-131.581-17.305C705.629,123.303,642.673,98.409,450.613,85.2 c-131.777-9.063-105.166-12.144-124.355-36.954C314.653,33.24,296.79-6.635,271.809,0.95c-32.064,9.736-34.688,19.981-39.03,31.121 c-1.194,3.065-11.485,54.361-10.217,72.851c2.155,31.442,38.252,26.629,51.859,15.64c84.422-68.176,92.943-31.749,180.562-31.43 c-9.317-0.034,174.598,15.208,184.779,20.892c-194.485,4.427-149.374,94.53-245.529,179.267 c-20.867,18.389-7.924,28.98-24.811,43.368c-25.141,21.421-7.419,21.855-41.17,56.826c-17.303,17.927-19.771,59.523-4.556,73.314 c1.18-0.689,2.262-1.355,3.292-1.977c17.936,35.409,135.057,262.044,256.432,388.721c5.063,5.737,9.921,10.67,14.531,14.68 l298.763,582.917c-0.698,1.776-1.407,4.1-2.099,7.296h5.839l2.022,3.945c0.037,3.089,0.813,5.811,3.808,7.431l1.533,2.99 c-1.934,1.912-5.757,0.415-7.513,2.701c6.74,11.969,17.982,6.678,11.752,21.528c-3.427,8.163-5.551,9.161,2.021,10.619 c3.815,0.735,2.728-4.78,6.065-4.483c0.958,3.062,15.291,59.67,11.124,62.714c-9.976,7.284-5.276,40.451-31.797,53.537 c-16.418,8.099-40.408,73.151-42.68,76.214c-5.138,6.927-27.49,40.463-4.813,41.661c31.24,1.647,32.919-7.536,32.039,23.295 c-0.279,9.817,4.938,10.781,8.38,9.318c18.715-7.948,12.756-20.258,22.078-25.918c-0.167,13.501,1.508,26.782,10.161,37.615 c66.333,83.032,5.747,134.815,24.593,160.531c4.146,5.658,2.162,18.785-4.495,23c-33.846,21.433,68.492,51.951,64.227,32.827 c-2.989-13.399,9.385-0.138,12.68-12.569c2.967-11.2-33.962-20.986-24.495-46.09c0.334-0.885,0.377-2.192-0.036-3.004 c-9.651-18.941,12.388-64.646,16.721-78.369c8.98-28.454-52.836-166.307-23.966-203.199c17.367-22.193,4.137-52.943-7.927-77.383 c-12.253-24.823-10.601-31.387,1.099-82.797c21.73-95.482,12.682-97.87,25.597-107.12c-0.338-1.277-0.995-2.52-1.832-3.734 l169.864-567.626l174.675-319.056c2.725,2.504,8.761-2.212,25.567-12.927C1458.814,427.862,1466.422,413.147,1459.772,358.529z M915.117,1739.057c0.19-0.553,0.38-1.108,0.573-1.662c0.362,0.359,0.726,0.714,1.088,1.072 C916.223,1738.662,915.67,1738.86,915.117,1739.057z M1349.167,486.461c0.329,2.243,0.682,3.948,1.195,5.139l-173.037,316.103 l9.342-66.559l116.418-257.202C1320.757,481.19,1336.681,480.969,1349.167,486.461z M965.684,1363.422l4.951-21.698l-1.122,22.059 C968.245,1363.642,966.973,1363.514,965.684,1363.422z M930.727,1368.262l-42.054-204.408l-30.782-327.716l22.395,58.432 l72.411,468.84C945.075,1363.94,937.559,1365.492,930.727,1368.262z M694.311,720.148l200.185,672.3L637.598,808.513 L607.039,625.16c9.315-2.935,19.094-5.253,29.125-7.078L694.311,720.148z M695.776,719.702l-7.674-107.444 c10.413-0.612,20.649-0.977,30.46-1.24l22.419,53.943l147.509,644.353c6.653,44.143,11.722,77.874,14.323,95.35 c-0.214,1.868-0.345,3.806-0.381,5.824l-3-6.821L695.776,719.702z M889.984,1308.979c-25.794-171.2-75.311-498.445-97.115-642.503 l6.396,16.688l39.404,244.859l51.484,381.689L889.984,1308.979z M801.939,690.142l7.166,18.697l21.535,159.659L801.939,690.142z M800.752,682.77l-12.177-75.676c2.513-0.55,4.693-1.203,6.541-1.966l13.099,97.112L800.752,682.77z M798.078,675.792 l-6.279-16.383c-3.466-22.902-6.141-40.568-7.793-51.482c1.067-0.167,2.081-0.349,3.063-0.542L798.078,675.792z M789.24,652.73 l-16.678-43.518c3.598-0.281,6.903-0.633,9.93-1.062C783.941,617.724,786.249,632.975,789.24,652.73z M790.309,659.799 c20.33,134.323,68.205,450.707,95.152,629.424L742.483,664.665l2.646-54.263c9.518-0.234,18.232-0.529,25.838-1.074 L790.309,659.799z M903.752,1399.085l-7.586-56.241l10.755,46.977C905.583,1392.646,904.511,1395.725,903.752,1399.085z M907.988,1387.622l-14.076-61.484l-50.614-375.236l43.856,213.174l20.975,223.313 C908.085,1387.47,908.032,1387.541,907.988,1387.622z M840.45,929.462l-0.267-1.661l-28.696-212.747l44.367,115.765l29.989,319.272 L840.45,929.462z M877.072,597.939l12.607,40.68l11.305,155.437l-20.176,97.601l-23.449-61.184l-21.68-230.823 C848.497,598.662,863.066,597.926,877.072,597.939z M941.326,606.47c1.819-1.239,3.779-2.401,5.854-3.513l17.208,66.281 l-0.633,65.464l-15.557,87.565l-3.379-10.904L939.8,613.856L941.326,606.47z M1061.31,530.451c0.882-0.545,1.812-1.089,2.768-1.631 l-10.648,153.062l-22.081,75.626l-10.49-79.42l38.906-146.88C1060.267,531.014,1060.779,530.779,1061.31,530.451z M1065.672,527.94 c9.76-5.294,22.815-10.331,36.907-14.388l-47.137,161.44L1065.672,527.94z M1030.291,761.195l-52.572,471.377l24.634-484.615 l17.476-65.976L1030.291,761.195z M974.899,1257.86l-9.927,89l28.554-565.581l6.927-26.151L974.899,1257.86z M1002.725,740.629 l3.04-59.803l0.7-0.402l-0.624-1.088l3.791-74.565l9.674,73.249L1002.725,740.629z M1000.826,747.801l-8.804,33.242 l-29.375,581.495l-2.192-19.667l25.932-590.806l1.018-0.265l-0.861-3.315l4.065-92.617l13.677,23.837L1000.826,747.801z M916.673,725.726l18.377,59.299l19.23,502.444l-45.698-409.992l-6.058-83.306L916.673,725.726z M902.117,788.571l-10.435-143.49 l24.053,77.615L902.117,788.571z M947.627,825.607l6.119,337.008l-8.784-345.606L947.627,825.607z M970.917,694.386l-5.543,31.2 l0.49-50.663L970.917,694.386z M965.921,669.044l0.534-55.275l14.343,24.997l-9.238,51.999L965.921,669.044z M971.835,697.924 l13.169,50.723l-25.464,580.149l5.745-594.012L971.835,697.924z M958.108,1318.571l-8.964-492.956l14.521-81.717L958.108,1318.571z M954.546,1254.356l-17.747-463.687l6.495,20.956L954.546,1254.356z M985.233,743.431l-12.754-49.127l9.503-53.475l7.203,12.555 L985.233,743.431z M982.399,638.48l9.881-55.602l-2.969,67.648L982.399,638.48z M981.215,636.417l-14.731-25.674l0.162-16.732 c8.086-3.573,16.545-7.615,24.449-13.211L981.215,636.417z M964.979,608.12l-6.136-10.695c2.047-0.898,4.14-1.804,6.266-2.735 L964.979,608.12z M964.949,611.145l-0.505,52.213l-15.872-61.14c2.789-1.435,5.765-2.802,8.862-4.172L964.949,611.145z M943.15,805.979l-6.577-21.224l-5.015-131.034l6.877-33.268L943.15,805.979z M934.824,779.111l-17.508-56.495l12.948-62.637 L934.824,779.111z M916.377,719.588l-25.188-81.277l-2.922-40.181c16.563,0.566,31.267,2.49,39.887,6.703l1.866,48.76 L916.377,719.588z M889.186,631.847l-10.507-33.904c2.714,0.014,5.404,0.055,8.05,0.131L889.186,631.847z M954.232,1363.326 l-72.425-468.935l19.584-94.737l5.67,77.963l48.024,430.881l2.094,54.703C956.195,1363.219,955.215,1363.274,954.232,1363.326z M960.02,1352.78l1.161,10.422c-0.538-0.012-1.08,0.002-1.619-0.001L960.02,1352.78z M965.192,1358.696l8.418-75.493l-2.524,49.666 L965.192,1358.696z M976.431,1257.908l55.366-496.513l21.137-72.379l-28.539,410.233l-51.335,224.965L976.431,1257.908z M1054.946,682.127l49.373-169.066c9.399-2.636,19.199-4.826,28.75-6.36l2.087,108.118l-0.737,2.281l-107.817,472.484 L1054.946,682.127z M1172.707,505.019c2.169,0.292,4.382,0.482,6.615,0.626l-4.006,130.381l-12.675,32.896l-1.65-129.12 l11.252-34.837C1172.396,504.986,1172.556,504.999,1172.707,505.019z M1216.378,529.459l3.802-27.087 c2.382-0.436,4.774-0.902,7.172-1.394L1216.378,529.459z M1229.133,500.614c11.858-2.486,23.854-5.53,35.625-8.437l-64.676,153.389 l15.357-109.414L1229.133,500.614z M1213.942,535.782l-30.463,79.06l27.528-110.945c2.514-0.371,5.041-0.777,7.582-1.229 L1213.942,535.782z M1213.002,542.474l-15.242,108.598l-23.053,54.674l1.948-63.399l3.867-15.584L1213.002,542.474z M1138.918,730.494l-2.227-115.451l22.828-70.679l1.641,128.406L1138.918,730.494z M1138.942,734.663l22.27-57.792l0.26,20.313 l-0.263,1.057l-141.48,617.629L1138.942,734.663z M1161.553,703.593l0.404,31.57l0.347-0.005l-1.857,4.406l-127.525,525.57 L1161.553,703.593z M1163.454,732.436l-0.448-35.076l11.901-47.964l-1.852,60.271L1163.454,732.436z M1175.129,642.145 l-12.201,49.171l-0.234-18.29l12.481-32.388L1175.129,642.145z M1160.93,535.008l-0.393-30.73c3.574,0.004,6.97,0.172,10.152,0.512 L1160.93,535.008z M1159.457,539.569l-22.858,70.775l-2.004-103.887c8.535-1.313,16.826-2.082,24.411-2.168L1159.457,539.569z M1135.261,620.287l2.2,114.028l-130.352,635.47l18.804-270.302L1135.261,620.287z M1161.897,740.044l11.027-26.149l-1.778,57.888 l-152.193,557.422L1161.897,740.044z M1174.577,709.975l22.357-53.019l-11.761,83.799l-12.382,27.358L1174.577,709.975z M1199.256,651.451l67.357-159.732c11.948-2.94,23.637-5.691,34.67-7.504l-113.865,251.58L1199.256,651.451z M1209.376,504.125 l-30.323,122.205l-2.071,5.375l3.871-125.982C1189.952,506.177,1199.532,505.507,1209.376,504.125z M1047.427,530.873 c3.526-1.37,6.682,1.343,10.638,0.784l-37.729,142.469l-10.276-77.804l1.922-37.81c1.709-2.849,3.304-5.901,4.734-9.229 C1024.693,530.73,1021.811,540.828,1047.427,530.873z M1008.952,587.93l-2.787-21.107c1.443-1.775,2.827-3.661,4.148-5.661 L1008.952,587.93z M1004.833,568.442l3.69,27.938l-4.092,80.5l-13.695-23.869L994,578.648 C997.811,575.697,1001.463,572.347,1004.833,568.442z M938.131,608.502l0.133,5.209l-6.95,33.622l-1.596-41.719 c0.9,0.516,1.723,1.059,2.448,1.638C934.409,609.042,936.087,609.431,938.131,608.502z M834.151,599.77l21.169,225.383 l-44.725-116.699l-14.028-104.001c0.189-0.095,0.414-0.177,0.594-0.276C798.29,603.558,813.844,601.382,834.151,599.77z M743.595,610.44l-2.482,50.854l-20.911-50.318C728.357,610.767,736.209,610.615,743.595,610.44z M686.574,612.354l7.443,104.182 l-56.261-98.755C653.776,614.955,670.365,613.345,686.574,612.354z M602.945,626.469c0.863-0.294,1.75-0.556,2.622-0.838 l29.87,179.094L535.157,633.534C556.729,634.889,600.564,627.279,602.945,626.469z M523.569,629.751 c0.749,1.716,3.48,2.773,7.458,3.359l63.97,221.006L465.455,571.282C495.918,599.339,520.811,623.432,523.569,629.751z M462.548,568.608L596.13,860.266c-3.838-3.789-7.674-7.68-11.507-11.679c-66.283-74.99-167.647-288.112-194.016-344.757 C412.631,523.396,439.054,547.025,462.548,568.608z M328.309,460.043c5.033-2.9,8.837-3.953,15.402,2.152 c3.646,3.392,21.205,18.826,44.022,39.083c22.12,47.667,113.654,241.319,180.91,330.053 C453.14,702.399,345.286,493.568,328.309,460.043z M599.385,863.697l-0.094-0.206l-66.607-230.164 c0.198,0.021,0.409,0.036,0.612,0.055l102.865,175.607l261.831,595.202l4.698,15.776c0.898,21.875-1.88,18.61-5.182,25.365 L599.385,863.697z M902.486,1455.044c0.049,0.031,0.09,0.066,0.138,0.098c0.019-0.235,0.033-0.469,0.053-0.704l-0.336,0.324 l0.336-0.324h-0.302c-0.026,0.081-0.052,0.151-0.079,0.235l-0.12-0.235h0.2c5.266-16.116,9.713,8.041,9.153,12.277 c-0.975,0.165-2.534,0.465-2.772,0.291c-0.016,0.061-0.034,0.115-0.051,0.172l-0.101-0.198l0.216-0.184 c-0.144-0.036-0.24-0.095-0.379-0.135l-0.085-0.167c-0.109-4.683-1.625-8.666-5.731-11.351c-0.003,0.05-0.007,0.1-0.011,0.151 L902.486,1455.044z M911.936,1467.146C913.427,1467.493,912.153,1468.245,911.936,1467.146L911.936,1467.146z M909.464,1385.21 l-19.478-207.371l39.298,191.017C921.237,1372.377,914.293,1377.705,909.464,1385.21z M936.676,1541.906 c1.341-1.185,0.826-1.197,1.993,0.12C937.334,1543.204,937.852,1543.232,936.676,1541.906z M941.918,1497.01 c-5.404-2.474-9.749-3.965-13.531-6.347c-3.344-2.104-7.205-4.648-7.339-9.152c-0.744-24.856-16.109-32.86,2.079-40.28 C953.507,1428.837,945.276,1452.192,941.918,1497.01z M954.621,1552.139c9.243-28.662-17.143-59.719-1.133-78.255 C979.444,1598.297,948.886,1569.91,954.621,1552.139z M971.281,1561.083c-1.469-3-1.479-1.779,0.138-4.593 C972.901,1559.472,972.898,1558.277,971.281,1561.083z M997.249,1391.27c-0.53,3.068-23.521,131.321-29.428,132.576 c-3.778-26.163-6.056-103.363-9.247-115.764C954.808,1393.453,1000.06,1374.957,997.249,1391.27z M971.041,1363.941l1.57-30.871 l51.096-223.922l-18.671,268.389C998.816,1371.001,985.817,1365.825,971.041,1363.941z M1172.605,772.212l11.817-26.107 l-9.186,65.446l-152.344,509.031L1172.605,772.212z"/> <path d="M908.755,1467.005c0.018-0.073,0.044-0.13,0.06-0.208C908.69,1466.904,908.698,1466.963,908.755,1467.005z"/> </g> <g> <path d="M3512.164,3438.444c-15.875-17.648,16.539-15.552,11.128-64.208c-3.899-35.057,8.214-48.201-11.552-82.495 c-10.367-17.987,6.649-18.729,4.293-48.598c-1.771-22.448-7.455-83.938-21.975-101.698c-2.969-3.631-4.752-7.744-3.926-12.555 c6.49-37.762-14.256-69.834-21.968-104.624c-0.698-3.149-2.689-6.575-5.114-8.686c-23.144-20.156-12.954-62.073-26.666-74.721 c-18.107-16.703-5.934-43.262-25.227-59.33c-15.645-13.029-13.505-30.758-17.391-44.014c-12.681-43.264-9.825-6.865-27.867-51.47 c-5.101-12.61-22.964-37.843-30.431-36.87c-13.879,1.809-2.522-18.737-25.011-44.361 c-151.207-172.292-278.47-211.351-500.188-260.903c-222.49-49.724-271.907-48.234-348.809-38.521 c-76.316,9.638-100.25,84.226-94.196,103.926c0.753,0,1.448,0.003,2.181,0.003c4.693,56.551,50.801,596.066,104.71,639.084 l0.198-0.249l56.806,668.497c-5.514,3.894-8.674,6.661-3.978,17.125c1.886,4.202,4.323,9.288-0.584,13.425 c12.9,13.794,6.74,25.699,2.853,44.205c0.067,0.053,0.078,0.048,0.134,0.09c-18.263,33.208-38.286,22.63-53.943,59.621 c-1.642,3.877-18.748,41.089-22.327,43.116c-15.77,8.934-28.177,22.991-44.956,30.13c-18.193,7.741-32.396,20.554-45.879,34.263 c-16.11,16.38,2.756,14.07,9.014,19.351c0.629,2.489-0.587,4.649-2.038,6.179c-17.274,18.212,5.403,27.362,10.341,47.599 c4.83,19.796,5.42,19.653,26.022,16.304c13.245-2.152,20.008,2.178,20.561,15.437c1.724,41.343-55.514,67.674-45.369,96.397 c0.465,1.316-0.24,3.652-1.234,4.78c-7.183,8.138-7.948,20.186-16.676,27.303c-14.908,12.157,32.797,28.087,39.338,18.408 c8.962-13.261-11.131-13.258-2.348-31.47c10.874-22.547,25.262-41.963,36.941-56.465c4.12-5.115,8.021-12.11,16.623-13.023 c3.065,10.52,1.571,21.253,6.375,30.481c3.212,6.168,2.186,11.706-0.482,17.779c-25.668,58.45-48.477,58.552-34.594,75.91 c5.657,7.073-7.836,18.656-16.403,21.722c-26.11,9.346,35.688,43.793,39.085,44.286c19.735,2.855,22.51-10.303,11.883-19.114 c-5.939-4.925-12.419-12.82-9.892-18.441c4.858-10.807,4.496-22.979,10.508-33.088c30.688-51.608,43.865-64.857,43.632-99.146 c-0.167-24.44,11.418-37.688,0.199-56.288c-8.333-13.815-1.298-30.367,17.337-34.347c10.654-2.275,36.278-16.731,35.273-22.76 c-1.191-7.145-0.057-14.037,1.195-21.01l1.231,0.218l17.627-99.699c18.055-22.09,35.528-39.509,48.365-54.151l0.506,0.463 l39.342-43.022l-1.727-1.579c0.005-0.005,0.009-0.01,0.015-0.015c77.881-38.954,175.95-83.067,272.711-124.811l0.023,0.043 l0.482-0.261c184.648-79.646,364.276-150.576,389.296-160.421c4.999,0.343,10.159,0.645,15.517,0.864 c31.526,1.289,31.782-13.106,53.34-13.417c37.445-0.539,95.581-15.646,122.148-55.82c17.433-26.362-7.83-36.304,7.834-61.124 C3526.628,3479.271,3526.788,3454.701,3512.164,3438.444z M2564.594,3771.599l103.744-276.412 c-26.692,131.395-49.647,248.711-56.803,285.433c-3.248-4.125-6.52-7.23-10.39-10.25 C2587.996,3760.111,2574.63,3763.62,2564.594,3771.599z M2583.103,3936.978c0.475,0.182,1.123,0.242,1.362,0.587 C2585.441,3938.97,2579.64,3941.117,2583.103,3936.978z M2545.273,3882.889l-0.568,0.838l-0.324-0.96L2545.273,3882.889z M2579.047,2870.851c0.021-0.141,0.02-0.295,0.035-0.439l48.329-11.863l6.617,77.197l-82.774,814.336l-1.914-823.95 C2563.494,2916.239,2574.842,2898.804,2579.047,2870.851z M2635.322,2930.955l-6.241-72.816l27.995-6.872L2635.322,2930.955z M2635.7,2935.973l23.252-85.167l46.912-11.515l1.188,141.382l-154.198,804.446c-0.549,0.923-1.05,1.845-1.512,2.762l-0.049-21.399 L2635.7,2935.973z M2704.561,2684.147l1.275,151.657l-45.86,11.256l44.521-163.065 C2704.518,2684.046,2704.539,2684.096,2704.561,2684.147z M2744.443,2890.547l-35.726,86.073l-1.157-137.744l29.599-7.265 C2739.493,2849.573,2741.561,2869.021,2744.443,2890.547z M2794.81,3153.39l-120.629,321.4 c40.899-200.521,83.241-397.432,98.682-437.388C2780.557,3075.976,2787.523,3114.718,2794.81,3153.39z M2772.348,3034.802 c-16.406,39.364-62.751,257.626-101.867,449.846l-108.557,289.235c-0.51,0.473-1.01,0.958-1.498,1.451l211.372-743.31 C2771.985,3032.948,2772.163,3033.876,2772.348,3034.802z M2549.653,3791.703c-0.179,0.479-0.349,0.955-0.5,1.423 c-0.257,0.797-0.527,1.553-0.801,2.294l1.281-12.604L2549.653,3791.703z M2907.859,3588.006l-245.085,297.135l62.946-102.933 l177.902-198.44C2905.049,3585.198,2906.466,3586.616,2907.859,3588.006z M2661.253,3884.368 c-3.177-7.274-6.132-14.046-8.883-20.343l67.08-74.824L2661.253,3884.368z M2662.761,3887.826l246.306-298.615 c4.031,4.019,7.914,7.865,11.653,11.545l-257.58,287.963C2663.015,3888.424,2662.898,3888.142,2662.761,3887.826z M2730.613,3774.205l138.1-225.83c12.222,12.509,23.427,23.877,33.708,34.188L2730.613,3774.205z M2724.343,3781.199 l-72.721,81.116c-1.533-3.507-2.99-6.837-4.401-10.056l212.578-313.02c2.606,2.677,5.167,5.302,7.686,7.881L2724.343,3781.199z M2637.476,3830.194l53.613-139.84l72.672-92.292l-121.832,242.161C2640.367,3836.687,2638.885,3833.346,2637.476,3830.194z M2791.769,3270.896c-1.248,35.493,15.75,76.149,11.195,90.152c-0.021,0.064-0.035,0.128-0.055,0.192l-112.172,256.251 l94.914-328.634L2791.769,3270.896z M2617.41,3789.238l5.24-11.969l8.079-10.261l-11.081,26.108 C2618.886,3791.751,2618.138,3790.448,2617.41,3789.238z M2625.352,3771.096l56.592-129.282l-4.102,14.203l-44.587,105.045 L2625.352,3771.096z M2687.14,3629.942l58.343-133.282l-62.109,146.323L2687.14,3629.942z M2673.916,3669.608l-18.158,62.873 l-18.503,23.499L2673.916,3669.608z M2656.757,3735.141l0.97-2.42l2.54-3.225l-5.566,12.767L2656.757,3735.141z M2649.463,3754.274 l-4.623,10.603l5.587-13.943L2649.463,3754.274z M2659.964,3727.139l139.031-346.925c-1.326,11.603-1.183,23.369-1.72,35.048 l-134.33,308.091L2659.964,3727.139z M2797.004,3420.128c-0.583,8.699-1.729,17.327-4.378,25.775c0,0,2.266,8.381,3.235,20.48 c-20.873,25.866-58.682,100.544-61.052,105.242l-0.035,0.032l-45.185,117.857l-22.498,28.571L2797.004,3420.128z M2796.033,3468.888c0.441,7.151,0.396,15.381-0.817,23.897c-1.188,8.339,1.211,14.373,6.074,16.99l-62.856,58.481 C2746.842,3551.858,2777.759,3492.426,2796.033,3468.888z M2800.028,3373.077l-138.552,345.726l17.972-62.227l120.738-284.445 C2800.127,3372.445,2800.084,3372.762,2800.028,3373.077z M2685.54,3629.362l-64.365,147.037l-2.824,3.586l155.678-457.014 L2685.54,3629.362z M2618.474,3782.572l-2.148,4.907c-0.113-0.18-0.228-0.369-0.341-0.546l0.721-2.117L2618.474,3782.572z M2634.73,3761.927l19.272-24.475l-27.573,68.802c-2.075-4.275-3.963-7.973-5.74-11.248L2634.73,3761.927z M2645.831,3766.851 l-14.426,49.949c-1.338-2.902-2.606-5.602-3.811-8.122L2645.831,3766.851z M2651.068,3754.84l13.346-30.612l23.127-29.371 l-51.046,133.146c-1.406-3.134-2.737-6.072-4.005-8.842L2651.068,3754.84z M2693.137,3685.011l43.084-112.378l66.78-62.133 c1.346,0.461,2.829,0.718,4.45,0.72l-39.871,79.249L2693.137,3685.011z M2784.033,3288.335l-168.847,495.67l-0.613,0.779 c-0.273-0.404-0.545-0.792-0.816-1.177l183.654-541.592L2784.033,3288.335z M2607.961,3911.572 c15.156-32.236,42.585-32.414,46.115-18.395l-52.969,32.997C2603.217,3921.671,2605.482,3916.844,2607.961,3911.572z M2921.933,3601.95c12.519,12.302,23.42,22.712,32.969,31.461l-285.627,251.001L2921.933,3601.95z M2956.159,3634.565 c6.74,6.151,12.792,11.452,18.257,15.997l-39.571,60.416l-265.725,175.83L2956.159,3634.565z M2975.731,3651.65 c9.427,7.764,17.065,13.209,23.423,16.773l-60.73,40.186L2975.731,3651.65z M2850.67,3529.849c2.684,2.765,5.323,5.479,7.919,8.148 l-212.174,312.423c-1.246-2.841-2.443-5.563-3.598-8.186l126.205-250.853l60.811-77.227 C2837.576,3517.506,2844.185,3523.168,2850.67,3529.849z M2828.184,3513.507l-55.342,70.282l36.56-72.668 C2816.492,3510.428,2822.631,3511.383,2828.184,3513.507z M2804.037,3217.189l-190.388,561.45 c16.234-83.431,37.04-188.474,58.377-293.278l123.389-328.754c2.193,11.604,4.409,23.202,6.703,34.783 C2803.859,3200.187,2804.575,3208.756,2804.037,3217.189z M2771.071,3028.377l-213.205,749.754 c-0.912,1.07-1.771,2.166-2.573,3.278l153.393-800.333l36.206-87.188c3.302,24.174,7.688,50.956,14.677,81.194 C2763.662,2992.788,2767.456,3010.562,2771.071,3028.377z M2736.714,2828.224l-29.184,7.163l-1.236-147.089 c12.618,31.534,7.683,50.582,15.877,73.347C2729.558,2782.169,2733.459,2803.847,2736.714,2828.224z M2689.402,2656.149 c5.971,9.328,10.499,17.72,14.001,25.403l-45.306,165.969l-29.311,7.194l-20.419-238.219 C2652.451,2591.212,2667.845,2622.469,2689.402,2656.149z M2606.747,2617.462l20.371,237.664l-48.142,11.817 c-1.844-12.618-18.21-32.589-29.046-44.367l27.598-184.513c7.267-2.598,14.091-10.523,21.204-15.451 C2601.51,2620.684,2604.167,2618.997,2606.747,2617.462z M2573.889,2638.89c0.618-0.05,1.232-0.159,1.844-0.298l-27.273,182.397 c-2.805-2.998-5.13-5.336-6.56-6.687c-4.387-4.146-9.117-7.029-14.003-8.863l-0.606-4.673l25.634-166.483 C2560.173,2636.717,2567.415,2639.418,2573.889,2638.89z M2519.829,2626.175c8.325,1.621,16.573,3.652,24.824,5.633 c2.193,0.526,4.412,1.214,6.636,1.942l-24.781,160.99l-20.886-161.027C2509.439,2624.336,2510.333,2624.328,2519.829,2626.175z M2504.276,2636.541l21.303,164.24l-0.571,3.705c-23.893-6.865-50.693,10.574-60.112,33.707c-1.351,3.318-2.408,6.771-3.277,10.277 c-1.96-118.719-2.385-237.766-2.477-281.949C2476.055,2592.235,2500.167,2629.118,2504.276,2636.541z M2462.915,2915.666 c7.834,10.158,23.941,18.528,41.796,20.688l-30.425,197.662C2468.678,3104.058,2465.142,3015.331,2462.915,2915.666z M2442.379,2541.112c0.732,1.099,6.887,10.402,15.06,22.82c0.081,42.812,0.5,168.44,2.614,292.047 c-2.989,17.963-1.445,36.163-2.115,45.516c-0.28,3.922,0.907,7.865,3.228,11.627c2.35,106.233,6.174,200.667,12.395,225.693 l0.418,4.919c-34.345-68.669-62.354-574.006-65.512-632.944C2429.434,2513.543,2429.056,2521.127,2442.379,2541.112z M2406.754,2510.572c3.073,57.388,31.078,563.532,65.614,633.729c-51.518-58.708-96.834-582.941-101.215-634.98 C2387.254,2509.36,2398.556,2509.648,2406.754,2510.572z M2532.768,3815.518l-57.527-676.706l31.143-202.267 c13.833,1.361,28.578-1.065,41.269-9.281l1.941,839.147l-3.472,34.16C2542.047,3808.619,2536.949,3812.557,2532.768,3815.518z M2519.73,3963.805c4.075-15.561,25.502-58.168,28.444-61.103c7.883-7.862,7.509-2.415,30.155,41.329 c1.658,3.204,2.448,6.323,0.615,9.611c-10.308,18.5-15.155,39.543-27.694,57.898c0.712-17.965-10.502-25.4-24.421-30.969 C2515.739,3976.133,2516.512,3976.093,2519.73,3963.805z M2570.719,3992.874c0.487-1.2,0.975-2.401,1.462-3.602 C2573.808,3991.329,2572.73,3992.916,2570.719,3992.874z M2569.772,3993.712l-0.405,0.947 C2569.438,3994.106,2569.231,3994.069,2569.772,3993.712z M2514.835,4075.651c-5.8-2.568-4.458-7.664-4.346-13.884 C2521.479,4066.732,2518.231,4077.156,2514.835,4075.651z M2512.514,3948.821c0.94,11.125-6.281,18.412-1.352,26.311 C2503.75,3967.107,2505.547,3959.547,2512.514,3948.821z M2557.833,4082.731c-7.506,11.99-16.747,21.818-30.055,27.366 c-5.115,2.132,0.362,14.632-18.874,10.204c15.417-50.726,39.566-88.918,63.302-118.863L2557.833,4082.731z M2598.465,3931.824 l55.973-34.869c-0.059,1.396-0.337,2.893-0.817,4.466l-21.78,23.817c-18.184,19.056-34.427,39.907-52.371,59.252 C2576.28,3981.384,2574.756,3982.579,2598.465,3931.824z M2664.361,3891.992l336.482-222.655 c22.288,11.736,28.35-0.755,43.09-15.912c23.299-23.959,19.845,1.393,87.042,8.723c1.849,0.201,3.585,0.345,5.255,0.453 l-200.612,108.456c-96,41.41-193.31,85.159-270.972,123.911C2664.799,3894.098,2664.693,3893.139,2664.361,3891.992z M2953.081,3763.545l184.868-99.943l-0.502-0.926c28.571,1.486,32.039-11.305,64.102-33.95 c38.611-27.271,71.394-20.438,120.178-16.835C3288.191,3625.108,3124.875,3689.816,2953.081,3763.545z"/> <path d="M2525.865,3846.747l0.334,0.833c0.161-0.123,0.251-0.254,0.399-0.379c-0.004-0.004-0.007-0.008-0.011-0.012 L2525.865,3846.747z"/> </g> <path d="M1582.395,2749.242c-26.383-20.677-42.427-50.792-68.592-71.707c-30.49-24.372-81.167-42.45-90.163-34.471 c-25.104-39.852-56.162-50.902-56.604-46.979c-7.905-4.688-16.458-8.5-25.578-11.335c-18.27-12.297-38.791-19.807-64.665-21.917 c-4.725-3.467-9.212-5.266-14.947-1.628c-21.955-18.278-47.415-28.241-76.263-30.236c-26.5-1.833-16.804-6.241-119.514-26.696 c-24.722-4.924-50.447-2.334-74.743-11.364c-30.089-11.182-92.251-6.052-100.76-21.471c-21.492-38.947-31.964-18.395-57.352-22.166 c-48.794-7.25-80.604,28.74-126.177,5.387c-34.087-17.466-35.036,0.418-97.659-11.903c-43.682-31.403-84.83-65.844-115.635-21.965 c-14.913,21.241-5.071,25.828-25.486,34.29c-20.909,8.666-44.54-4.303-81.4,19.64c-26.95,17.505-56.687-7.226-104.954,21.851 c-14.125,8.509-38.611-0.732-71.399,28.338c-30.95,27.441-38.999,3.963-65.846,22.733c-36.978,25.851-80.882,39.016-113.861,69.442 c-32.172,29.679-6.187,52.69-29.978,79.489c-3.967,4.468,7.436,38.344,13.45,46.206c65.37,85.45,70.795,83.146,72.993,100.32 c1.059,8.271,5.191,10.015,17.725,9.651l144.117,214.051l399.139,694.725l38.483,91.152l2.57,67.823 c0.005,0.095,0.002,0.192,0.011,0.287l0.203,5.372l1.414-0.052c0.731,1.809,1.411,3.637,1.348,5.632 c-1.261,39.938-14.841,37.648-37.1,68.181c-33.831,46.406,37.209,49.799,5.716,76.192c-5.097,4.272-36.963,18.945-22.581,48.774 c2.099,4.353,4.89,8.15,9.564,8.284c54.303,1.551,69.19,171.456,71.229,177.004c9.653,26.268-25.187,16.184-9.525,35.843 c10.201,12.806,19.276,26.604,33.01,36.147c2.929,2.036,7.057,2.661,7.398,7.337c1.404,19.249,24.794,8.411,26.885-3.801 c2.601-15.189,7.954-29.716-7.172-43.092c-8.745-7.733-6.677-13.055,3.659-19.059c15.263-8.866,25.391-22.751,36.321-35.763 c17.783-21.168,19.28-43.359,5.097-67.863c-11.839-20.457-14.292-46.869-22.036-54.928c-26.195-27.257,20.054-15.037,26.643-35.101 c11.21-34.128,17.831-26.811,15.409-47.969c0.505-0.397,0.856-0.993,0.804-1.821c-0.286-4.47-0.855-8.906-1.78-13.291 c-0.359-1.698-1.084-3.494-2.677-3.644v-134.464c15.502-47.199,31.425-98.734,32.275-101.333c1.927-5.89,4.425-11.262,4.08-16.229 l715.277-830.827c2.783-0.911,5.653-1.838,8.708-2.797c31.854-10.009,87.535-44.693,88.675-87.182 c1.392-1.422,2.426-3.35,2.813-5.883C1693.49,2815.635,1627.69,2784.742,1582.395,2749.242z M860.42,3814.091l-15.842,19.604 c0.521-4.805,1.519-9.323,2.468-13.783l6.702-8.934C856.255,3810.967,858.878,3812.3,860.42,3814.091z M138.576,2849.914 l219.042,289.566l-227.444-288.263c0.299-0.019,0.564-0.037,0.868-0.056C134.213,2850.965,136.655,2850.526,138.576,2849.914z M369.693,2805.527l73.711,333.528l-43.842-102.401l-33.261-230.009C367.318,2806.45,368.464,2806.051,369.693,2805.527z M441.23,3139.666l-35.585-60.946l-4.841-33.472L441.23,3139.666z M399.63,3068.417l-13.319-22.812l-15.324-70.004l22.984,53.683 L399.63,3068.417z M400.483,3074.32l15.352,106.158l-27.97-127.768L400.483,3074.32z M420.297,3211.332l0.655,4.53l-187.869-392.438 c8.199-0.104,15.332-0.37,20.377-0.911l130.738,223.917L420.297,3211.332z M426.905,3225.74l-20.406-141.117l40.027,68.555 l0.779,3.525l9.041,20.864l235.229,625.494c-1.029,10.909-2.065,18.581-2.87,24.392l-29.29-50.98L426.905,3225.74z M474.438,3219.318l184.032,424.69l32.888,152.119L474.438,3219.318z M692.449,3862.028c1.654,4.292,11.759,69.912,6.456,67.336 c-3.68-2.433-1.538-9.055-5.234-11.638l-2.208-58.285C691.775,3860.266,692.098,3861.118,692.449,3862.028z M692.62,3791.37 l-29.58-136.814l21.672,50.012l7.984,86.237C692.672,3790.998,692.642,3791.173,692.62,3791.37z M658.189,3632.117l-132.776-614.134 l32.289,78.84l0.288,2.151l115.052,479.512l10.346,111.771L658.189,3632.117z M676.699,3593.73l43.588,181.662l-34.041-78.542 L676.699,3593.73z M615.971,2926.76l-58.456-220.185c4.067-2.946,8.232-6.001,12.563-9.177l47.043,197.257L615.971,2926.76z M619.064,2902.8l43.028,180.421l61.162,693.548c-0.116-0.01-0.227-0.019-0.342-0.028l-47.657-198.621l-57.958-626.031 L619.064,2902.8z M875.74,3130.999l-142.426,625.352l125.091-975.339L875.74,3130.999z M873.228,3034.972l57.034-319.911 c10.834,12.621,21.344,25.497,31.385,38.74l-84.065,369.103L873.228,3034.972z M725.882,2958.94l14.383-92.318l20.335,198.535 l-34.704,706.032L725.882,2958.94z M865.747,3184.969l-31.106,606.119c-20.506-4.865-53.014-9.363-103.825-13.687L865.747,3184.969z M940.348,3282.059l0.125,0.013l0.124-1.125l36.792-164.676l-27.946,275.283l0.674,0.121l-1.32,3.969l-0.018,0.028l-93.706,357.095 l79.409-444.448L940.348,3282.059z M1101.437,3053.57l42.481-124.531c7.156,8.998,14.001,19.036,22.224,27.505l-100.195,201.059 l35.439-103.886l0.099-0.072C1101.469,3053.621,1101.454,3053.593,1101.437,3053.57z M1179.56,3064.947l32.781-47.537 l-32.948,71.195C1179.092,3080.932,1179.178,3072.966,1179.56,3064.947z M1177.289,3093.148l-284.62,615l-43.61,87.067 c-0.002,0-0.004-0.001-0.005-0.002l215.904-564.076l112.088-162.542C1176.752,3076.952,1176.792,3085.229,1177.289,3093.148z M1177.625,3097.754c0.958,10.88,2.896,20.887,6.114,29.284l-258.632,516.349L1177.625,3097.754z M863.034,3752.423l154.243-452.143 l42.293-61.331L863.034,3752.423z M1019.942,3292.47l40.579-118.953l103.893-208.483l-101.448,265.043L1019.942,3292.47z M953.836,3387.6l99.185-199.031l-37.761,110.691l-61.898,89.761L953.836,3387.6z M1058.448,3172.654l-99.584,199.839 l122.855-369.117c3.442,20.421,8.885,38.469,17.248,50.508L1058.448,3172.654z M957.427,3369.715l119.016-457.505 c-0.474,26.452,0.26,58.275,4.509,86.379L957.427,3369.715z M950.842,3396.621l61.753-89.552l-163.547,479.417l1.088-6.087 L950.842,3396.621z M848.773,3813.873c0.269-0.459,0.568-0.858,0.898-1.198L848.773,3813.873z M853.95,3797.143l1.091-2.359 l529.476-765.945l3.814,22.215c-1.472,4.157-1.922,8.166,1.597,11.765c4.182,4.278,7.883,3.028,20.665,2.198l-551.311,734.847 C857.771,3798.943,855.992,3798.037,853.95,3797.143z M1392.994,3037.653c-0.281,3.119-1.707,6.304-3.07,9.452l-3.588-20.895 l7.252-10.492C1394.083,3021.592,1393.796,3028.737,1392.994,3037.653z M1393.172,3012.378l-7.379,10.674l-5.199-30.282 C1388.004,2997.532,1391.793,3003.292,1393.172,3012.378z M1378.062,2991.242l5.914,34.44l-523.421,757.186l0.211-0.456 l497.782-799.256c0.703,0.239,1.406,0.448,2.109,0.696C1367.795,2986.362,1373.492,2988.695,1378.062,2991.242z M1356.362,2982.434 l-487.964,783.489l9.979-21.562l398.27-767.139C1301.107,2970.538,1328.642,2973.327,1356.362,2982.434z M1273.646,2978.145 l-364.171,701.457l275.712-550.453l1.51-0.648c-0.183-0.429-0.337-0.901-0.512-1.34l71.276-142.3 C1262.66,2982.085,1268.068,2979.866,1273.646,2978.145z M1253.962,2986.841l-68.865,137.486c-3.066-8.83-4.745-19.456-5.463-30.915 l39.186-84.673c4.981-0.732,12.328-4.871,24.618-14.698C1246.824,2991.333,1250.352,2988.979,1253.962,2986.841z M1215.625,3008.698 l-35.835,51.967c2.017-33.775,8.684-67.312,11.577-80.652c7.123,9.229,15.88,21.192,16.803,22.502 C1210.384,3005.661,1212.453,3008.08,1215.625,3008.698z M1189.564,2977.695c-2.807,12.487-10.574,49.787-12.342,86.694 l-108.869,157.877l100.625-262.896c4.026,3.793,8.396,7.178,13.317,9.84C1183.114,2969.653,1186.004,2973.144,1189.564,2977.695z M1142.257,2926.983l-42.375,124.211c-8.161-12.567-13.35-31.475-16.537-52.708l31.173-93.658c1.236,1.151,2.664,2.15,4.474,2.885 C1128.169,2911.438,1135.424,2918.638,1142.257,2926.983z M1112.772,2902.982l-30.135,90.538 c-4.068-30.404-4.343-64.653-3.593-91.317l8.161-31.371c7.71,8.059,14.844,16.705,21.285,26.03 C1109.961,2898.99,1111.234,2901.112,1112.772,2902.982z M1085.373,2868.977l-5.981,22.992c0.466-11.697,1.073-21.271,1.526-27.493 C1082.437,2865.94,1083.895,2867.469,1085.373,2868.977z M1078.795,2862.524c-0.614,7.772-1.599,22.142-2.127,39.918 L953.142,3377.28l28.375-279.483l59.056-264.321c2.255,1.281,4.675,2.759,7.323,4.53 C1058.937,2845.387,1069.248,2853.561,1078.795,2862.524z M983.429,3078.97l26.263-258.693c7.7,5.741,14.296,4.277,28.836,12.072 L983.429,3078.97z M1007.612,2818.568L979.3,3097.445l-36.468,163.227l50.781-460.529c0.045,0.072,0.093,0.142,0.138,0.214 C999.495,2809.68,1003.776,2815.125,1007.612,2818.568z M991.694,2797.157l-53.301,483.387l-6.107,27.333l-84.341,472.051 l-3.607,13.744c-2.28-0.691-4.771-1.374-7.484-2.051l31.791-619.377l8.59-37.714l0.923-0.045l-0.163-3.291l85.414-375.026 C973.365,2769.417,982.849,2783.037,991.694,2797.157z M893.849,2674.411c11.739,12.643,23.28,25.441,34.527,38.471l-55.642,312.107 l-12.709-256.602l12.881-100.439C882.411,2665.302,887.657,2667.741,893.849,2674.411z M870.569,2668.565l-11.174,87.12 l-4.131-83.414C860.158,2671.267,865.258,2670.037,870.569,2668.565z M853.041,2672.706l4.735,95.605L728.383,3777.196 c-0.179-0.015-0.362-0.03-0.541-0.045l34.988-711.863l56.969-389.112C829.726,2676.099,840.737,2675.093,853.041,2672.706z M817.532,2676.199l-55.612,379.885l-20.299-198.173l29.372-188.519C783.56,2672.641,798.527,2676.083,817.532,2676.199z M768.815,2668.828l-28.089,180.34l-18.402-179.663c1.375-0.71,2.755-1.397,4.126-2.133 C738.987,2660.648,751.651,2664.343,768.815,2668.828z M720.188,2670.609l19.182,187.271l-14.22,91.3l-21.161-271.058 C709.429,2675.83,714.828,2673.317,720.188,2670.609z M701.815,2679.033l21.841,279.766v797.042l-59.338-672.791l3.206-393.231 C679.141,2687.284,690.569,2683.643,701.815,2679.033z M665.281,2690.287l-3.122,383.568l-42.794-179.446l7.193-200.635 C639.71,2694.141,652.609,2692.885,665.281,2690.287z M592.973,2689.355c10.612,2.525,21.052,3.887,31.348,4.316l-6.899,192.592 l-45.383-190.298c1.445-1.057,2.868-2.102,4.352-3.181C581.462,2689.097,586.344,2687.777,592.973,2689.355z M555.572,2707.985 l59.522,224.199l0.689-0.182l-0.721,20.151l56.535,610.726l-109.708-457.222l1.586-0.649l-3.601-8.784l-48.495-362.168 C527.045,2727.619,540.72,2718.677,555.572,2707.985z M509.239,2734.933l47.289,353.126l-48.978-119.507l-29.72-225.466 C489.523,2741.398,499.785,2738.631,509.239,2734.933z M475.616,2743.435l28.224,214.117l-70.112-208.387 c5.652-2.507,12.625-3.979,22.238-4.236C462.98,2744.741,469.495,2744.232,475.616,2743.435z M495.387,2939.448l-75.367-180.343 c3.565-3.648,7.216-6.66,11.676-8.966L495.387,2939.448z M418.335,2760.878l87.091,208.396l0.033-0.012l15.125,36.932 l133.034,615.378l-202.072-466.243L373.8,2803.366c1.551-0.946,3.207-2.034,5.128-3.469 C400.204,2783.996,409.41,2770.515,418.335,2760.878z M361.758,2806.535l30.97,214.156l-24.291-56.736l-35.747-163.296 c0.186-0.027,0.373-0.053,0.559-0.08C351.142,2797.964,355.53,2804.934,361.758,2806.535z M363.748,2953.003l-63.092-147.36 c9.821-1.977,19.844-3.249,29.813-4.667L363.748,2953.003z M298.422,2806.118l67.875,158.532l16.346,74.676l-126.77-217.118 c2.319-0.346,4.009-0.773,4.822-1.31C272.44,2813.148,285.23,2808.935,298.422,2806.118z M230.614,2823.451L415.39,3209.43 l-243.6-386.473C188.182,2823.019,211.767,2823.613,230.614,2823.451z M153.951,2823.446c2.71-0.368,8.156-0.491,15.189-0.492 l240.636,381.768l-269.046-355.67C152.582,2842.971,132.699,2826.335,153.951,2823.446z M251.005,3065.621l-143.383-212.965 c5.223-0.24,11.745-0.736,19.837-1.263l294.821,373.656l0.234,1.618l0.039,0.284l218.529,517.614L251.005,3065.621z M666.576,3793.436l21.626,37.643c-0.646,4.738-1.041,8.117-0.986,11.248L666.576,3793.436z M700.913,4009.608 c-7.276,13.063-20.918,8.616-18.429,2.35c5.75-14.468,4.556-32.548,21.63-42.36C708.77,3983.735,708.031,3996.829,700.913,4009.608z M709.131,3925.628c-3.159-21.286-4.26-42.592-0.813-63.943C715.637,3875.565,715.947,3906.334,709.131,3925.628z M694.276,3783.589 l-6.706-72.425l28.167,65.001c-0.367-0.029-0.716-0.058-1.084-0.087C702.482,3775.122,696.922,3776.363,694.276,3783.589z M779.566,4263.464c-8.294,6.226-11.873,17.204-23.432,22.601c-9.664-24.37-3.713-48.64-3.595-72.995 C760.348,4221.653,788.05,4257.096,779.566,4263.464z M780.352,4038.433c-8.545-2.074-2.208-9.859,3.384-10.151 C788.058,4028.056,789.334,4040.612,780.352,4038.433z M783.727,3978.909c-10.307-19.591-40.227-21.656-54.664-4.425 c-4.2,5.012-1.831,13.751-9.877,15.952c-2.771-38.698,3.665-77.036,4.498-115.59c0.51-23.629,28.542-6.378,97.002,4.837 c-0.078,4.486-9.87,108.219-28.867,110.345C783.993,3990.905,785.888,3983.018,783.727,3978.909z M826.075,4073.953 c0.159-0.27,0.26-0.564,0.431-0.829c0.725-1.125,1.544-2.178,2.44-3.17c0.255-0.281,0.531-0.538,0.798-0.804 c0.014,0.083,0.036,0.212,0.042,0.25c0.239,1.283,0.446,2.571,0.628,3.864c0.209,1.489,0.312,2.986,0.444,4.482 C827.652,4077.674,826.454,4076.117,826.075,4073.953z M826.657,4065.741c-1.476,1.501-2.807,3.303-3.75,4.737 c-0.096,0.147-0.15,0.313-0.244,0.461c-7.552,7.229-14.237,14.922-14.094,26.889c0.054,4.476-4.151,5.32-7.913,5.697 c-0.999,0.969-2.696,2.904-2.892,2.763c-2.968-2.147-1.154-3.451,1.047-4.585c-9.489-55.878,9.916-64.661,5.586-97.85 c-0.061-0.019-0.123-0.037-0.185-0.056c4.313-8.518,13.014-33.229,22.445-61.545V4065.741z M861.385,3818.832 c-5.247,10.114-4.796,22.941-15.716,33.206c-1.218-5.024-1.549-9.6-1.404-13.914l17.437-20.253 C861.64,3818.193,861.548,3818.516,861.385,3818.832z M861.152,3801.11l552.369-736.26c3.713-0.194,8.073-0.331,13.306-0.301 c24.913,0.147,3.903-20.792,41.537-27.917c9.672-1.831,17.683-3.478,24.357-4.985l-626.403,775.147 C865.341,3804.837,863.698,3802.945,861.152,3801.11z M883.173,3789.496l613.083-758.664c65.979-15.544-17.253-15.801,82.381-49.147 L883.173,3789.496z"/> </svg>